<svg width="32" height="32" viewBox="0 0 32 32" fill="none" xmlns="http://www.w3.org/2000/svg">
<rect width="32" height="32" rx="8" fill="url(#paint0_linear_22_16)"/>
<g clip-path="url(#clip0_22_16)">
<path d="M19.9349 11.6373C20.1232 11.4424 20.3791 11.3319 20.6467 11.3299C20.9142 11.3278 21.1716 11.4345 21.3627 11.6265C21.5538 11.8186 21.663 12.0804 21.6664 12.3547C21.6698 12.629 21.5672 12.8936 21.381 13.0906L15.9926 19.9982C15.9 20.1004 15.7883 20.1824 15.6641 20.2394C15.54 20.2963 15.4059 20.327 15.2699 20.3297C15.1339 20.3323 14.9987 20.3068 14.8726 20.2547C14.7464 20.2026 14.6318 20.1249 14.5355 20.0264L10.9629 16.3643C10.7731 16.1695 10.6664 15.9054 10.6665 15.63C10.6666 15.3547 10.7733 15.0906 10.9633 14.8959C11.1532 14.7012 11.4108 14.5919 11.6793 14.592C11.9479 14.592 12.2054 14.7015 12.3952 14.8963L15.2207 17.7943L19.9081 11.6697C19.9166 11.6586 19.9258 11.648 19.9356 11.638L19.9349 11.6373Z" fill="white"/>
</g>
<defs>
<linearGradient id="paint0_linear_22_16" x1="16" y1="0" x2="16" y2="32" gradientUnits="userSpaceOnUse">
<stop stop-color="#89F09C"/>
<stop offset="1" stop-color="#3CC755"/>
</linearGradient>
<clipPath id="clip0_22_16">
<rect width="10.6667" height="10.6667" fill="white" transform="translate(10.6667 10.6667)"/>
</clipPath>
</defs>
</svg>
